=== Starting video renders at mer 4 feb 2026, 12:17:33, CET ===
[v01] Rendering TESTS/videos/v01-horiz-chaos-fast.html...
[out#0/mp4 @ 0x563435d96140] video:1813KiB audio:0KiB subtitle:0KiB other streams:0KiB global headers:2KiB muxing overhead: 1.893519%
frame= 2690 fps=8.0 q=33.0 Lsize=    1847KiB time=00:00:44.80 bitrate= 337.8kbits/s speed=0.134x elapsed=0:05:34.32

Done: /home/uh1/Vibe_Projects/CLAUDE_SKILLS/TESTS/videos/output/v01-horiz-chaos-fast.mp4
2690 frames in 339.2s
[v01] Done: TESTS/videos/output/v01-horiz-chaos-fast.mp4
[v01] Extracting frames at 2fps...
[v01] Extracted 90 frames
[v02] Rendering TESTS/videos/v02-vert-safe-normal.html...
[out#0/mp4 @ 0x558d8e797b80] video:1438KiB audio:0KiB subtitle:0KiB other streams:0KiB global headers:2KiB muxing overhead: 1.996762%
frame= 2220 fps=5.0 q=33.0 Lsize=    1467KiB time=00:00:36.96 bitrate= 325.1kbits/s speed=0.0838x elapsed=0:07:21.39

Done: /home/uh1/Vibe_Projects/CLAUDE_SKILLS/TESTS/videos/output/v02-vert-safe-normal.mp4
2220 frames in 445.8s
[v02] Done: TESTS/videos/output/v02-vert-safe-normal.mp4
[v02] Extracting frames at 2fps...
[v02] Extracted 74 frames
[v03] Rendering TESTS/videos/v03-square-hybrid-slow.html...
[out#0/mp4 @ 0x55592e832cc0] video:1104KiB audio:0KiB subtitle:0KiB other streams:0KiB global headers:2KiB muxing overhead: 2.763902%
frame= 2370 fps=7.4 q=33.0 Lsize=    1135KiB time=00:00:39.46 bitrate= 235.6kbits/s speed=0.123x elapsed=0:05:20.36

Done: /home/uh1/Vibe_Projects/CLAUDE_SKILLS/TESTS/videos/output/v03-square-hybrid-slow.mp4
2370 frames in 324.5s
[v03] Done: TESTS/videos/output/v03-square-hybrid-slow.mp4
[v03] Extracting frames at 2fps...
[v03] Extracted 79 frames
[v04] Rendering TESTS/videos/v04-vert45-cocomelon-normal.html...
[out#0/mp4 @ 0x55baa1e39a40] video:564KiB audio:0KiB subtitle:0KiB other streams:0KiB global headers:2KiB muxing overhead: 4.248597%
frame= 1803 fps= 12 q=28.8 Lsize=     588KiB time=00:00:30.01 bitrate= 160.4kbits/s speed=0.196x elapsed=0:02:32.79

Done: /home/uh1/Vibe_Projects/CLAUDE_SKILLS/TESTS/videos/output/v04-vert45-cocomelon-normal.mp4
1803 frames in 162.2s
[v04] Done: TESTS/videos/output/v04-vert45-cocomelon-normal.mp4
[v04] Extracting frames at 2fps...
[v04] Extracted 60 frames
[v05] Rendering TESTS/videos/v05-horiz-safe-slowest.html...
[out#0/mp4 @ 0x563c9a03e140] video:1987KiB audio:0KiB subtitle:0KiB other streams:0KiB global headers:2KiB muxing overhead: 2.135329%
frame= 3378 fps=5.9 q=33.0 Lsize=    2029KiB time=00:00:56.26 bitrate= 295.4kbits/s speed=0.0989x elapsed=0:09:28.92

Done: /home/uh1/Vibe_Projects/CLAUDE_SKILLS/TESTS/videos/output/v05-horiz-safe-slowest.mp4
3378 frames in 573.2s
[v05] Done: TESTS/videos/output/v05-horiz-safe-slowest.mp4
[v05] Extracting frames at 2fps...
[v05] Extracted 113 frames
[v06] Rendering TESTS/videos/v06-vert-chaos-fast.html...
[out#0/mp4 @ 0x564c1adfda00] video:2610KiB audio:0KiB subtitle:0KiB other streams:0KiB global headers:2KiB muxing overhead: 1.334340%
frame= 2720 fps=5.4 q=33.0 Lsize=    2645KiB time=00:00:45.30 bitrate= 478.3kbits/s speed=0.0896x elapsed=0:08:25.83

Done: /home/uh1/Vibe_Projects/CLAUDE_SKILLS/TESTS/videos/output/v06-vert-chaos-fast.mp4
2720 frames in 515.2s
[v06] Done: TESTS/videos/output/v06-vert-chaos-fast.mp4
[v06] Extracting frames at 2fps...
[v06] Extracted 91 frames
[v07] Rendering TESTS/videos/v07-square-cocomelon-fastest.html...
[out#0/mp4 @ 0x562605d3ba00] video:447KiB audio:0KiB subtitle:0KiB other streams:0KiB global headers:2KiB muxing overhead: 4.834770%
frame= 1596 fps= 13 q=33.0 Lsize=     469KiB time=00:00:26.56 bitrate= 144.5kbits/s speed=0.211x elapsed=0:02:05.74

Done: /home/uh1/Vibe_Projects/CLAUDE_SKILLS/TESTS/videos/output/v07-square-cocomelon-fastest.mp4
1596 frames in 134.6s
[v07] Done: TESTS/videos/output/v07-square-cocomelon-fastest.mp4
[v07] Extracting frames at 2fps...
[v07] Extracted 53 frames
[v08] Rendering TESTS/videos/v08-vert45-hybrid-normal.html...
[out#0/mp4 @ 0x55c850e1e200] video:1445KiB audio:0KiB subtitle:0KiB other streams:0KiB global headers:2KiB muxing overhead: 2.640671%
frame= 3017 fps=9.0 q=32.9 Lsize=    1483KiB time=00:00:50.25 bitrate= 241.8kbits/s speed=0.151x elapsed=0:05:33.78

Done: /home/uh1/Vibe_Projects/CLAUDE_SKILLS/TESTS/videos/output/v08-vert45-hybrid-normal.mp4
3017 frames in 345.3s
[v08] Done: TESTS/videos/output/v08-vert45-hybrid-normal.mp4
[v08] Extracting frames at 2fps...
[v08] Extracted 101 frames
[v09] Rendering TESTS/videos/v09-horiz-safe-slow.html...
[out#0/mp4 @ 0x564eb28fb140] video:1863KiB audio:0KiB subtitle:0KiB other streams:0KiB global headers:2KiB muxing overhead: 2.205407%
frame= 3303 fps=5.8 q=33.0 Lsize=    1904KiB time=00:00:55.01 bitrate= 283.5kbits/s speed=0.0965x elapsed=0:09:30.15

Done: /home/uh1/Vibe_Projects/CLAUDE_SKILLS/TESTS/videos/output/v09-horiz-safe-slow.mp4
3303 frames in 574.5s
[v09] Done: TESTS/videos/output/v09-horiz-safe-slow.mp4
[v09] Extracting frames at 2fps...
[v09] Extracted 110 frames
[v10] Rendering TESTS/videos/v10-vert-hybrid-normal.html...
frame= 1666 fps=4.0 q=33.0 size=    1280KiB time=00:00:27.73 bitrate= 378.1kbits/s speed=0.0663x elapsed=0:06:58.11
frame= 1697 fps=4.1 q=33.0 Lsize=    1404KiB time=00:00:28.25 bitrate= 407.2kbits/s speed=0.0675x elapsed=0:06:58.44

Done: /home/uh1/Vibe_Projects/CLAUDE_SKILLS/TESTS/videos/output/v10-vert-hybrid-normal.mp4
1697 frames in 430.1s
[v10] Done: TESTS/videos/output/v10-vert-hybrid-normal.mp4
[v10] Extracting frames at 2fps...
[v10] Extracted 57 frames

=== All renders and extractions complete at mer 4 feb 2026, 13:22:24, CET ===
